HIERARCHY
ROOT Hips
{
	OFFSET 0.000000 0.000000 0.000000
	CHANNELS 6 Xposition Yposition Zposition Xrotation Yrotation Zrotation
	JOINT LeftUpLeg_virtual
	{
		OFFSET 0.000000 0.000000 0.000000
		CHANNELS 3 Xrotation Yrotation Zrotation
		JOINT LeftUpLeg
		{
			OFFSET 11.394100 -6.187798 -0.413800
			CHANNELS 3 Xrotation Yrotation Zrotation
			JOINT LeftLeg
			{
				OFFSET 0.430247 -32.302673 3.732800
				CHANNELS 3 Xrotation Yrotation Zrotation
				JOINT LeftFoot
				{
					OFFSET -0.430247 -48.264931 -6.423300
					CHANNELS 3 Xrotation Yrotation Zrotation
					JOINT LeftToeBase
					{
						OFFSET 4.230900 -16.068199 23.438400
						CHANNELS 3 Xrotation Yrotation Zrotation
						JOINT LeftToe_End
						{
							OFFSET 4.510700 0.695400 19.974600
							CHANNELS 3 Xrotation Yrotation Zrotation
							End Site
							{
								OFFSET 0 0 0
							}
						}
					}
				}
			}
		}
	}
	JOINT RightUpLeg_virtual
	{
		OFFSET 0.000000 0.000000 0.000000
		CHANNELS 3 Xrotation Yrotation Zrotation
		JOINT RightUpLeg
		{
			OFFSET -11.333700 -6.187798 -0.413800
			CHANNELS 3 Xrotation Yrotation Zrotation
			JOINT RightLeg
			{
				OFFSET -0.430392 -32.302628 3.733000
				CHANNELS 3 Xrotation Yrotation Zrotation
				JOINT RightFoot
				{
					OFFSET 0.430392 -48.264973 -6.423500
					CHANNELS 3 Xrotation Yrotation Zrotation
					JOINT RightToeBase
					{
						OFFSET -4.230900 -16.068199 23.438400
						CHANNELS 3 Xrotation Yrotation Zrotation
						JOINT RightToe_End
						{
							OFFSET -4.510700 0.695400 19.974600
							CHANNELS 3 Xrotation Yrotation Zrotation
							End Site
							{
								OFFSET 0 0 0
							}
						}
					}
				}
			}
		}
	}
	JOINT Spine_virtual
	{
		OFFSET 0.000000 0.000000 0.000000
		CHANNELS 3 Xrotation Yrotation Zrotation
		JOINT Spine
		{
			OFFSET -0.002400 12.777504 0.315300
			CHANNELS 3 Xrotation Yrotation Zrotation
			JOINT Spine1
			{
				OFFSET -0.002067 5.816869 0.032633
				CHANNELS 3 Xrotation Yrotation Zrotation
				JOINT Spine1_split
				{
					OFFSET -0.002067 5.816869 0.032633
					CHANNELS 3 Xrotation Yrotation Zrotation
					JOINT Spine2
					{
						OFFSET -0.002067 5.816869 0.032633
						CHANNELS 3 Xrotation Yrotation Zrotation
						JOINT Neck_virtual
						{
							OFFSET 0.000000 0.000000 0.000000
							CHANNELS 3 Xrotation Yrotation Zrotation
							JOINT Neck
							{
								OFFSET -0.003700 21.199493 -0.826900
								CHANNELS 3 Xrotation Yrotation Zrotation
								JOINT Head
								{
									OFFSET 0.000000 20.442200 4.834800
									CHANNELS 3 Xrotation Yrotation Zrotation
									JOINT HeadTop_End
									{
										OFFSET 0.000000 34.668396 4.968400
										CHANNELS 3 Xrotation Yrotation Zrotation
										End Site
										{
											OFFSET 0 0 0
										}
									}
								}
							}
						}
						JOINT LeftShoulder_virtual
						{
							OFFSET 0.000000 0.000000 0.000000
							CHANNELS 3 Xrotation Yrotation Zrotation
							JOINT LeftShoulder
							{
								OFFSET 3.288150 8.794197 -1.372250
								CHANNELS 3 Xrotation Yrotation Zrotation
								JOINT LeftShoulder_split
								{
									OFFSET 3.288150 8.794197 -1.372250
									CHANNELS 3 Xrotation Yrotation Zrotation
									JOINT LeftArm
									{
										OFFSET 11.953299 -2.279007 -0.146200
										CHANNELS 3 Xrotation Yrotation Zrotation
										JOINT LeftForeArm
										{
											OFFSET 18.448900 0.000000 0.000000
											CHANNELS 3 Xrotation Yrotation Zrotation
											JOINT LeftHand
											{
												OFFSET 29.527798 0.000000 0.000000
												CHANNELS 3 Xrotation Yrotation Zrotation
												End Site
												{
													OFFSET 0 0 0
												}
											}
										}
									}
								}
							}
						}
						JOINT RightShoulder_virtual
						{
							OFFSET 0.000000 0.000000 0.000000
							CHANNELS 3 Xrotation Yrotation Zrotation
							JOINT RightShoulder
							{
								OFFSET -3.249400 8.794197 -1.372250
								CHANNELS 3 Xrotation Yrotation Zrotation
								JOINT RightShoulder_split
								{
									OFFSET -3.249400 8.794197 -1.372250
									CHANNELS 3 Xrotation Yrotation Zrotation
									JOINT RightArm
									{
										OFFSET -11.953299 -2.279007 -0.146200
										CHANNELS 3 Xrotation Yrotation Zrotation
										JOINT RightForeArm
										{
											OFFSET -18.448900 0.000000 0.000000
											CHANNELS 3 Xrotation Yrotation Zrotation
											JOINT RightHand
											{
												OFFSET -29.527802 0.000000 0.000000
												CHANNELS 3 Xrotation Yrotation Zrotation
												End Site
												{
													OFFSET 0 0 0
												}
											}
										}
									}
								}
							}
						}
					}
				}
			}
		}
	}
}
MOTION
Frames: 9
Frame Time: 0.03333333
-8.094390 92.946907 42.605499 0.000000 0.000000 0.000000 27.276203 1.454180 -15.430253 -82.397906 -6.594089 16.091849 35.849921 10.640501 -7.092921 22.002418 -2.634740 8.451904 -1.686546 0.858853 -0.513942 0.000000 0.000000 0.000000 27.324144 5.905725 -16.994409 -2.042656 -21.367052 -15.213114 76.993970 2.975087 -3.039323 33.540986 0.920415 10.133183 18.544971 -0.734416 0.404956 0.000000 0.000000 0.000000 26.564093 4.468495 -17.309808 6.477444 14.109263 -10.024126 12.172859 11.698080 -7.219718 1.726620 2.212745 0.386232 0.000000 0.000000 0.000000 12.203618 11.003082 -7.542728 -11.053918 -6.943695 7.215092 -26.042379 -32.187717 19.569448 0.000000 0.000000 0.000000 11.650890 11.741645 -7.570479 0.035283 5.944563 4.582033 -3.821091 0.016055 -1.073781 31.282809 -41.284074 -15.726172 0.225279 -29.462369 -0.714235 0.000000 0.000000 0.000000 11.742782 11.015708 -8.015934 5.153359 14.256257 -6.493153 0.167661 4.460090 -0.658866 -18.035082 58.148091 33.377946 -2.008404 40.926825 -0.213928 0.000000 0.000000 0.000000 
-8.288987 92.304802 44.196590 0.000000 0.000000 0.000000 25.405345 2.731693 -14.620527 -80.842713 -5.663824 15.877453 37.767903 10.152244 -7.713811 19.506300 -2.539416 8.381282 -1.380771 0.772641 -0.628323 0.000000 0.000000 0.000000 25.312999 6.440134 -16.003444 -5.864265 -21.746166 -14.605224 73.930036 3.256688 -3.002775 31.889040 0.288187 7.082463 19.144733 -0.794458 0.003698 0.000000 0.000000 0.000000 24.511727 5.311115 -16.548577 6.350969 12.550995 -10.327863 12.599322 10.787615 -7.353203 1.515377 2.371191 0.297055 0.000000 0.000000 0.000000 12.442532 10.226085 -7.695602 -11.243155 -6.660855 6.731459 -26.101578 -31.811545 20.112593 0.000000 0.000000 0.000000 11.716621 11.024828 -7.685884 0.161844 5.375929 5.480426 -3.867043 -1.004565 -1.784604 29.354691 -43.746856 -8.303259 0.468534 -27.695232 -0.482977 0.000000 0.000000 0.000000 11.974099 10.290860 -8.082352 4.902718 13.655074 -5.517668 0.741209 3.346368 -0.411757 -17.209616 54.257821 27.058727 -1.965343 39.710672 0.028817 0.000000 0.000000 0.000000 
-8.291007 92.024208 45.810020 0.000000 0.000000 0.000000 23.699238 4.055569 -13.971072 -78.895242 -4.357581 15.621288 39.323148 9.393213 -8.083276 17.199777 -2.582315 8.351416 -1.205045 0.717304 -0.797866 0.000000 0.000000 0.000000 23.231949 7.403504 -15.300162 -9.446232 -22.395572 -14.119633 70.300453 3.710610 -3.125333 30.746346 0.257069 3.729367 18.426744 -0.547850 0.587782 0.000000 0.000000 0.000000 22.483712 6.336785 -15.951878 6.217728 11.004093 -10.577169 13.026104 9.594021 -7.480969 1.454633 2.246510 0.190753 0.000000 0.000000 0.000000 12.755932 9.178231 -7.865716 -11.374110 -6.478294 6.272623 -25.771999 -31.178065 20.797738 0.000000 0.000000 0.000000 11.904146 9.986807 -7.797296 0.294902 4.655904 6.236188 -3.755708 -1.817520 -2.394683 25.794107 -46.965405 -2.476097 0.680224 -25.194123 -0.138828 0.000000 0.000000 0.000000 12.377368 9.296229 -8.167490 4.863242 13.243792 -5.637861 1.056663 2.187456 -0.332700 -17.012140 51.057218 22.080975 -1.874679 37.396778 0.248476 0.000000 0.000000 0.000000 
-8.107199 92.054977 47.423183 0.000000 0.000000 0.000000 22.005295 5.490799 -13.561759 -76.485285 -2.853417 15.418718 40.707880 8.355258 -8.155176 15.207046 -2.715909 8.344930 -1.456742 0.689633 -0.966312 0.000000 0.000000 0.000000 21.125840 8.619204 -14.887777 -13.009449 -23.027996 -13.928549 66.126217 4.622373 -3.645012 31.109992 1.145538 1.546537 13.951247 -0.271650 2.553851 0.000000 0.000000 0.000000 20.509958 7.523178 -15.566874 6.098244 9.322739 -10.796602 13.476837 8.039225 -7.520725 1.422677 1.997931 0.079856 0.000000 0.000000 0.000000 13.126824 7.739170 -7.935134 -11.379695 -6.350076 5.895561 -24.998921 -30.064812 21.640824 0.000000 0.000000 0.000000 12.238310 8.528441 -7.837433 0.416494 3.824328 6.797531 -3.684890 -2.127637 -2.759243 20.159834 -50.487116 1.041813 0.762178 -22.036366 0.241470 0.000000 0.000000 0.000000 12.897008 7.901672 -8.173765 5.001843 12.954506 -6.830701 1.136584 1.319900 -0.468104 -16.762172 48.560415 17.685342 -1.721529 34.998449 0.372496 0.000000 0.000000 0.000000 
-7.728453 92.296150 49.283356 0.000000 0.000000 0.000000 20.271093 6.837707 -13.426687 -73.739931 -1.217052 15.390650 42.011964 7.205035 -7.930672 13.332786 -2.836817 8.562643 -1.785471 0.660949 -1.189111 0.000000 0.000000 0.000000 19.112450 9.855301 -14.774071 -16.389826 -23.402902 -13.943950 60.878391 5.793687 -4.440367 32.138366 2.603408 0.582787 7.238250 -0.395280 6.115221 0.000000 0.000000 0.000000 18.470368 8.608642 -15.455314 6.014145 7.443335 -10.967715 13.932375 6.153580 -7.420425 1.499343 1.749276 -0.158748 0.000000 0.000000 0.000000 13.489837 5.919042 -7.836876 -11.208803 -6.192087 5.589631 -23.858959 -28.407962 22.612702 0.000000 0.000000 0.000000 12.696206 6.641225 -7.730995 0.498741 2.985859 7.251237 -3.522146 -2.076609 -2.746439 12.397054 -53.594729 1.836335 0.636685 -18.709550 0.576769 0.000000 0.000000 0.000000 13.465311 6.100064 -8.061794 5.256028 12.602801 -8.855679 1.106289 0.663556 -0.638757 -16.813330 46.666981 13.841432 -1.545588 33.541184 0.412569 0.000000 0.000000 0.000000 
-7.124562 92.682915 51.218506 0.000000 0.000000 0.000000 18.468780 7.945609 -13.624850 -70.710066 0.476908 15.651585 43.033269 6.087586 -7.460265 11.338240 -2.876803 9.050012 -1.820751 0.632529 -1.444370 0.000000 0.000000 0.000000 17.281265 10.885110 -14.943882 -19.286748 -23.444985 -13.907289 54.245000 6.868092 -5.261588 32.288616 3.880764 -0.113080 1.584436 -1.084317 10.742575 0.000000 0.000000 0.000000 16.423869 9.270166 -15.605116 5.946917 5.389962 -11.039882 14.356817 4.017841 -7.154876 1.629961 1.701993 -0.365503 0.000000 0.000000 0.000000 13.832215 3.806134 -7.542540 -10.907967 -5.962400 5.354571 -22.530462 -26.224936 23.606029 0.000000 0.000000 0.000000 13.171742 4.450065 -7.445354 0.525039 2.290555 7.656342 -3.363465 -1.861462 -2.329005 2.848916 -55.883293 0.091659 0.304257 -15.986700 0.805242 0.000000 0.000000 0.000000 13.983982 3.974178 -7.785402 5.489088 12.129511 -11.320184 0.922611 0.007239 -0.572625 -18.445262 45.337030 11.241247 -1.380082 33.339106 0.379996 0.000000 0.000000 0.000000 
-6.296561 93.167847 53.056141 0.000000 0.000000 0.000000 16.554999 8.479392 -14.097623 -67.452100 2.185816 16.263391 43.422436 5.073469 -6.819041 9.104345 -2.882454 9.576460 -1.647333 0.615995 -1.551246 0.000000 0.000000 0.000000 15.707384 11.389580 -15.389326 -21.850491 -23.118322 -13.684739 46.945379 7.311067 -5.750653 31.052567 4.438158 -0.892144 -0.945675 -1.913464 15.111920 0.000000 0.000000 0.000000 14.428916 9.244305 -15.974843 5.875508 3.299631 -10.922623 14.682019 1.771292 -6.743535 1.659348 1.971514 -0.365661 0.000000 0.000000 0.000000 14.100675 1.552230 -7.074359 -10.628036 -5.591754 5.091628 -21.268461 -23.578814 24.504424 0.000000 0.000000 0.000000 13.579124 2.145348 -6.992390 0.495490 1.768943 8.097941 -3.225760 -1.533576 -1.554844 -7.292475 -57.184529 -3.310176 -0.148766 -14.399109 0.911404 0.000000 0.000000 0.000000 14.357710 1.710069 -7.346445 5.573038 11.518884 -13.644517 0.795417 -0.564872 -0.288351 -23.052742 44.435793 11.023920 -1.262754 34.375345 0.310582 0.000000 0.000000 0.000000 
-5.223336 93.868271 54.638828 0.000000 0.000000 0.000000 14.766024 8.074515 -14.822842 -63.933958 3.894273 17.140604 43.055737 4.251870 -6.058596 6.903122 -2.842632 9.939716 -1.479350 0.593275 -1.381550 0.000000 0.000000 0.000000 14.306074 11.032461 -16.050398 -24.629099 -22.619423 -13.432090 39.816451 7.173970 -5.767841 29.887928 4.559629 -0.984313 -0.867358 -2.351954 17.648519 0.000000 0.000000 0.000000 12.593700 8.386047 -16.537884 5.800074 1.360077 -10.531175 14.860808 -0.410102 -6.232752 1.712698 2.300710 -0.438931 0.000000 0.000000 0.000000 14.228697 -0.626825 -6.494619 -10.502737 -5.121873 4.743399 -20.271880 -20.736557 25.225714 0.000000 0.000000 0.000000 13.826840 -0.075650 -6.421024 0.416328 1.460095 8.633417 -3.025878 -1.582366 -0.491545 -16.623012 -57.647985 -7.226731 -0.599274 -14.155087 0.900453 0.000000 0.000000 0.000000 14.538865 -0.475634 -6.779249 5.490337 10.884175 -15.447321 0.608114 -1.164254 0.204753 -31.455442 43.692081 14.237005 -1.230377 35.789532 0.267862 0.000000 0.000000 0.000000 
-4.018835 94.907257 55.783768 0.000000 0.000000 0.000000 13.222955 6.626324 -15.801542 -60.287361 5.455319 18.190532 41.922550 3.622929 -5.262230 5.175540 -2.689656 9.827281 -1.356528 0.565555 -0.973094 0.000000 0.000000 0.000000 13.042872 9.840190 -16.931984 -28.003397 -21.875532 -13.099036 33.107904 7.193801 -5.386264 29.768147 5.062268 1.042388 -0.430171 -2.441280 17.361110 0.000000 0.000000 0.000000 11.027025 6.810687 -17.259652 5.744416 -0.265552 -9.788212 14.879840 -2.382559 -5.667567 1.738052 2.522662 -0.500241 0.000000 0.000000 0.000000 14.201057 -2.577967 -5.860981 -10.693073 -4.581650 4.297437 -19.591057 -17.962728 25.725940 0.000000 0.000000 0.000000 13.899096 -2.054496 -5.807561 0.311746 1.333346 9.297117 -2.821294 -1.633291 0.532130 -24.554911 -57.801084 -11.175468 -0.983597 -14.997642 0.817461 0.000000 0.000000 0.000000 14.509747 -2.416836 -6.126325 5.278646 10.359310 -16.452502 0.302178 -1.485592 0.578893 -43.315765 42.246769 21.039554 -1.276150 36.956159 0.299115 0.000000 0.000000 0.000000 
